<?xml version="1.0" encoding="UTF-8"?>
<svg id="Layer_1" data-name="Layer 1" xmlns="http://www.w3.org/2000/svg" viewBox="0 0 435.49 499.01">
  <defs>
    <style>
      .cls-1 {
        fill: #4545ff;
      }

      .cls-2 {
        fill: #e5e5e5;
      }
    </style>
  </defs>
  <ellipse class="cls-2" cx="217.75" cy="249.51" rx="217.75" ry="249.51"/>
  <path class="cls-1" d="M194.99,109.81c-38.62.8-79.06,11.72-116.32,28.19-6.4-3.47-9.84-24.35-11.79-32.98,34.87-19.95,87.14-19.7,123.21-18.01l4.9,22.8Z"/>
  <path class="cls-1" d="M231.81,87.65c36.86-4.77,97.17-2.23,131.44,17.37-1.95,8.63-5.39,29.51-11.8,32.98-34.97-15.16-64.35-18.88-100.8-17.38-3.23.13-6.19,1.84-7.96,4.56-11.4,17.58-30.56,47.38-34.75,98.66-3.56,43.53-4.13,61.57,9.61,61.57,26.75,0,46.88-9.43,88.71-9.43,61.44,0,79.09,51.02,72.35,82.05-7.16,32.96-25.47,57.2-74.06,74.24-1.86.66-3.82-.73-3.82-2.7v-43.41c0-1.09.79-2.01,1.87-2.17,22.82-6.07,37.81-13.95,40.73-25.56,7-27.83-5.55-46.93-35.86-46.93-39.41,0-59.68,9.43-96.86,9.43-47.98,0-42.2-72.19-39.83-106.79,4.38-64.02,35.25-100.49,57.69-124.76.88-.95,2.06-1.58,3.35-1.74h0Z"/>
  <path class="cls-1" d="M89.76,359.94c18.61,13.65,57.51,39.68,103.71,41.8,31.27,1.44,51.98-.73,83.97-13.09v48.86s-8.86,7.43-52.67,7.43c-53.41,0-123.48-19.49-159.89-64.03"/>
  <path class="cls-1" d="M194.99,110.53c-38.62.8-79.06,11.72-116.32,28.19-6.4-3.47-9.84-24.35-11.79-32.98,34.87-19.95,87.14-19.7,123.21-18.01l4.9,22.8Z"/>
  <path class="cls-1" d="M231.81,88.37c36.86-4.77,97.17-2.23,131.44,17.37-1.95,8.63-5.39,29.51-11.8,32.98-34.97-15.16-64.35-18.88-100.8-17.38-3.23.13-6.19,1.84-7.96,4.56-11.4,17.58-30.56,47.38-34.75,98.66-3.56,43.53-4.13,61.57,9.61,61.57,26.75,0,46.88-9.43,88.71-9.43,61.44,0,79.09,51.02,72.35,82.05-7.16,32.96-25.47,57.2-74.06,74.24-1.86.66-3.82-.73-3.82-2.7v-43.41c0-1.09.79-2.01,1.87-2.17,22.82-6.07,37.81-13.95,40.73-25.56,7-27.83-5.55-46.93-35.86-46.93-39.41,0-59.68,9.43-96.86,9.43-47.98,0-42.2-72.19-39.83-106.79,4.38-64.02,35.25-100.49,57.69-124.76.88-.95,2.06-1.58,3.35-1.74h0Z"/>
  <path class="cls-1" d="M89.76,360.67c18.61,13.65,57.51,39.68,103.71,41.8,31.27,1.44,51.98-.73,83.97-13.09v48.86s-8.86,7.43-52.67,7.43c-53.41,0-123.48-19.49-159.89-64.03"/>
</svg>